<?xml version="1.0" encoding="UTF-8" standalone="no"?>
<!-- Created with Inkscape (http://www.inkscape.org/) -->

<svg
   xmlns:dc="http://purl.org/dc/elements/1.1/"
   xmlns:cc="http://creativecommons.org/ns#"
   xmlns:rdf="http://www.w3.org/1999/02/22-rdf-syntax-ns#"
   xmlns:svg="http://www.w3.org/2000/svg"
   xmlns="http://www.w3.org/2000/svg"
   xmlns:sodipodi="http://sodipodi.sourceforge.net/DTD/sodipodi-0.dtd"
   xmlns:inkscape="http://www.inkscape.org/namespaces/inkscape"
   width="150"
   height="163"
   viewBox="0 0 150.00001 162.99999"
   id="svg4146"
   version="1.1"
   inkscape:version="0.91 r13725"
   sodipodi:docname="logo.svg">
  <defs
     id="defs4148" />
  <sodipodi:namedview
     id="base"
     pagecolor="#ffffff"
     bordercolor="#666666"
     borderopacity="1.0"
     inkscape:pageopacity="0.0"
     inkscape:pageshadow="2"
     inkscape:zoom="3.2699387"
     inkscape:cx="84.786116"
     inkscape:cy="104.64651"
     inkscape:document-units="px"
     inkscape:current-layer="layer1"
     showgrid="false"
     units="px"
     inkscape:window-width="1280"
     inkscape:window-height="738"
     inkscape:window-x="-8"
     inkscape:window-y="-8"
     inkscape:window-maximized="1" />
  <metadata
     id="metadata4151">
    <rdf:RDF>
      <cc:Work
         rdf:about="">
        <dc:format>image/svg+xml</dc:format>
        <dc:type
           rdf:resource="http://purl.org/dc/dcmitype/StillImage" />
      </cc:Work>
    </rdf:RDF>
  </metadata>
  <g
     inkscape:label="Capa 1"
     inkscape:groupmode="layer"
     id="layer1"
     transform="translate(0,-889.36226)"
     style="display:inline">
    <path
       style="display:inline;fill:#0f64a0;fill-opacity:1;stroke:none;stroke-width:1px;stroke-linecap:butt;stroke-linejoin:miter;stroke-opacity:1"
       d="m 5.7942731,963.62818 c -3.4887302,-0.28721 -3.7143997,-0.53081 -3.1126473,-3.36015 0.6227098,-2.92789 1.8613984,-5.23379 3.6075665,-6.71575 2.9674486,-2.51844 6.6489237,-3.80367 10.8954067,-3.80367 1.535144,0 2.79117,-0.0805 2.79117,-0.17886 0,-0.0983 -1.155407,-1.47237 -2.567571,-3.0533 -4.920954,-5.50908 -6.25707,-8.24751 -6.25707,-12.82418 0,-2.27782 0.14543,-3.00691 0.904017,-4.53222 1.128504,-2.2691 3.666202,-4.59316 8.088393,-7.40746 13.421793,-8.54167 15.645169,-10.22094 24.89503,-18.80266 7.107393,-6.59401 10.966738,-9.85802 12.662135,-10.70888 1.068979,-0.5365 1.765418,-0.63627 3.55967,-0.50998 2.723823,0.19171 5.895495,1.51171 6.314742,2.62806 0.527286,1.40403 0.732646,19.71315 0.501853,44.74421 l -0.229026,24.83896 -29.724113,-0.0499 C 21.77557,963.86499 7.227269,963.7461 5.7942731,963.62814 Z"
       id="path5265"
       inkscape:connector-curvature="0" />
    <path
       style="display:inline;fill:#0f64a0;fill-opacity:1"
       d="m 80.708075,933.8982 0,-30.37418 0.754963,0.15061 c 0.415231,0.0829 1.170754,0.23718 1.678938,0.34298 1.192752,0.2483 6.015199,-0.32909 11.32315,-1.35573 2.306814,-0.44617 6.006124,-0.89031 8.220664,-0.98697 4.64992,-0.20298 6.47501,0.24544 9.77849,2.40254 6.44452,4.20812 8.18152,13.50632 4.24609,22.72942 -0.46496,1.0897 -1.68013,3.35931 -2.70037,5.04357 -2.62448,4.33262 -2.27844,4.37584 2.82208,0.35245 4.80513,-3.79039 9.31964,-6.15958 14.02549,-7.36053 6.17163,-1.57502 11.36116,0.7592 14.21016,6.39164 1.36291,2.6945 1.38237,3.33066 0.10181,3.33066 -1.66393,0 -4.67854,2.35264 -12.15499,9.48592 -3.95536,3.7738 -8.53229,7.85135 -10.17096,9.0612 -7.00155,5.16938 -16.00497,8.5619 -26.029694,9.80811 -2.354421,0.29269 -14.732603,1.35249 -15.796655,1.35249 -0.18627,0 -0.309155,-12.07315 -0.309155,-30.37418 z"
       id="path5267"
       inkscape:connector-curvature="0" />
    <path
       style="display:inline;fill:#0f64a0;fill-opacity:1"
       d="m 84.726403,1048.3463 c -1.379614,-0.7802 -2.848134,-1.6329 -3.263365,-1.8949 l -0.754963,-0.4764 0,-34.5798 0,-34.57956 19.880615,0.0313 c 28.49613,0.0449 45.18589,0.37577 46.17004,0.91531 0.7097,0.38908 0.76684,0.58627 0.57116,1.97092 -0.87612,6.19978 -7.75645,11.60621 -14.77033,11.60621 -1.69236,0 -2.52745,0.25014 -2.52745,0.75707 0,0.19599 1.17163,1.47982 2.60362,2.85293 4.14402,3.97364 6.00092,8.27621 5.70734,13.22441 -0.29178,4.918 -2.42819,7.2392 -12.00032,13.0384 -9.24791,5.6028 -12.86375,8.4368 -23.30898,18.2684 -5.621972,5.2917 -9.817759,8.6461 -12.091789,9.667 -2.127205,0.9549 -3.399636,0.7909 -6.215578,-0.8013 z"
       id="path5269"
       inkscape:connector-curvature="0" />
    <path
       style="display:inline;fill:#0f64a0;fill-opacity:1"
       d="m 44.495087,1035.3718 c -1.130048,-0.8356 -7.561793,-6.8514 -14.292759,-13.3684 -6.730967,-6.517 -12.464985,-11.8491 -12.74226,-11.8491 -0.663081,0 -0.636276,0.7137 0.150906,4.0175 0.898195,3.7698 1.165609,7.844 0.719291,10.9588 -0.505707,3.5294 -1.323021,5.2279 -3.059961,6.3586 -1.365373,0.8889 -1.423944,0.898 -1.87511,0.2909 -0.256146,-0.3445 -0.465717,-0.9441 -0.465717,-1.3324 0,-1.0059 -1.930704,-7.7703 -4.5201817,-15.8369 -4.0539199,-12.6285 -4.1906206,-13.4605 -3.4169466,-20.79574 0.2872239,-2.7232 0.686509,-7.17936 0.887301,-9.90258 0.2007907,-2.7232 0.4415619,-5.43402 0.5350478,-6.02406 l 0.169974,-1.07278 18.9306035,0 18.930603,0 6.945054,7.34441 c 11.559351,12.22406 15.942626,17.26775 17.373972,19.99215 0.7924,1.508 0.586952,2.7583 -0.540211,3.2872 -1.750924,0.8217 -3.816061,-0.5522 -12.116602,-8.06079 -8.077076,-7.3065 -10.127237,-9.02945 -10.744262,-9.02945 -0.91162,0 -0.660814,1.34657 0.584888,3.14021 1.192611,1.71723 2.042832,2.6643 12.358445,13.76623 6.298262,6.7782 9.709735,10.6864 10.340552,11.8459 0.65004,1.1949 -0.968564,3.1797 -3.00919,3.69 -1.584623,0.3962 -1.776138,0.2341 -15.370048,-13.0031 -10.331764,-10.06055 -12.173678,-11.57595 -12.173678,-10.01542 0,1.42182 2.31398,4.30512 13.235986,16.49292 11.127279,12.4167 12.264876,13.8342 12.264876,15.281 0,0.4257 -0.459019,1.2255 -1.020055,1.7774 -2.194385,2.1588 -3.979301,0.9335 -16.931204,-11.6222 -12.327969,-11.9507 -15.93804,-15.0215 -15.93804,-13.5569 0,0.6151 4.296473,5.9983 9.902171,12.4068 8.616861,9.851 10.565618,12.5556 10.565618,14.6641 0,1.1639 -0.751145,1.6751 -2.461221,1.6751 -0.861193,0 -1.696646,-0.3944 -3.217842,-1.5194 z"
       id="path5271"
       inkscape:connector-curvature="0" />
    <path
       style="display:inline;fill:#0f640a;fill-opacity:1"
       d="m 140.76048,963.30188 c -3.3994,-0.70578 -5.87684,-1.87285 -7.93233,-3.73675 -1.73515,-1.57342 -2.4605,-2.78877 -2.4605,-4.12265 0,-1.41878 0.55721,-1.73284 3.07435,-1.73284 4.9891,0 10.26258,3.18015 12.37648,7.46358 0.75307,1.52594 0.61778,2.28297 -0.45874,2.567 -1.0151,0.26782 -1.35315,0.2356 -4.59926,-0.43834 z"
       id="path5273"
       inkscape:connector-curvature="0" />
    <path
       style="display:inline;fill:#0f640a;fill-opacity:1"
       d="m 137.30209,951.17897 c -0.53998,-0.53119 -0.15221,-2.78598 0.80226,-4.66502 1.27028,-2.50076 3.73823,-4.74758 6.21692,-5.65993 2.48817,-0.91581 2.82326,-0.88021 2.82326,0.29998 0,1.88294 -1.30151,4.49446 -3.31977,6.66124 -2.4619,2.64309 -5.60668,4.26485 -6.52267,3.36373 z"
       id="path5275"
       inkscape:connector-curvature="0" />
    <path
       style="display:inline;fill:#0f640a;fill-opacity:1"
       d="m 126.4162,963.29951 c -3.41341,-1.22333 -5.77914,-3.21826 -5.77914,-4.87331 0,-0.8407 0.01,-0.84355 2.34164,-0.67941 3.27752,0.23068 5.84526,1.52582 7.31528,3.6897 0.6054,0.89114 1.04657,1.78238 0.98038,1.98052 -0.20594,0.61651 -2.99851,0.54899 -4.85816,-0.1175 z"
       id="path5277"
       inkscape:connector-curvature="0" />
  </g>
</svg>
